<svg width="45" height="48" viewBox="0 0 45 48" fill="none" xmlns="http://www.w3.org/2000/svg">
<path d="M30 37.2515C30 36.1686 30.4302 35.13 31.196 34.3642C31.9618 33.5984 33.0004 33.1682 34.0833 33.1682H42.8333V37.1349C42.8333 38.2488 42.3908 39.3171 41.6032 40.1047C40.8155 40.8924 39.7472 41.3349 38.6333 41.3349H34.0833C33.0004 41.3349 31.9618 40.9047 31.196 40.1389C30.4302 39.3731 30 38.3345 30 37.2515ZM2 41.9182C2 40.8352 2.43021 39.7966 3.19598 39.0309C3.96175 38.2651 5.00037 37.8349 6.08333 37.8349H13.6667V41.8015C13.6667 42.3531 13.558 42.8992 13.347 43.4088C13.1359 43.9184 12.8265 44.3814 12.4365 44.7714C12.0465 45.1614 11.5835 45.4708 11.0739 45.6818C10.5644 45.8929 10.0182 46.0015 9.46667 46.0015H6.08333C5.00037 46.0015 3.96175 45.5713 3.19598 44.8056C2.43021 44.0398 2 43.0012 2 41.9182Z" stroke="#A6A6A6" stroke-width="3" stroke-linejoin="round"/>
<path d="M13.6665 18.0529L42.8332 11.1474M13.6665 41.3349V8.66821L42.8332 1.66821V36.3089" stroke="#A6A6A6" stroke-width="3" stroke-linecap="round" stroke-linejoin="round"/>
</svg>
